<mxfile host="app.diagrams.net" modified="2021-04-02T22:13:33.196Z" agent="5.0 (Windows NT 10.0; Win64; x64) AppleWebKit/537.36 (KHTML, like Gecko) Chrome/89.0.4389.114 Safari/537.36" etag="V-yyd0R3ZASu8KZ6V3Ys" version="14.5.6" type="github">
  <diagram id="KriKKn6F9wLVpeAcaV_R" name="Page-1">
    <mxGraphModel dx="1673" dy="896" grid="1" gridSize="10" guides="1" tooltips="1" connect="1" arrows="1" fold="1" page="1" pageScale="1" pageWidth="827" pageHeight="1169" math="0" shadow="0">
      <root>
        <mxCell id="0" />
        <mxCell id="1" parent="0" />
        <mxCell id="cnnT2Qb8NBw0HW5TztHU-2" value="MAIN" style="rounded=1;whiteSpace=wrap;html=1;" vertex="1" parent="1">
          <mxGeometry x="400" y="60" width="80" height="40" as="geometry" />
        </mxCell>
        <mxCell id="cnnT2Qb8NBw0HW5TztHU-5" value="Admin Login" style="rounded=1;whiteSpace=wrap;html=1;" vertex="1" parent="1">
          <mxGeometry x="583" y="120" width="90" height="40" as="geometry" />
        </mxCell>
        <mxCell id="cnnT2Qb8NBw0HW5TztHU-6" value="Student Login" style="rounded=1;whiteSpace=wrap;html=1;" vertex="1" parent="1">
          <mxGeometry x="207" y="120" width="90" height="40" as="geometry" />
        </mxCell>
        <mxCell id="cnnT2Qb8NBw0HW5TztHU-15" value="" style="endArrow=blockThin;html=1;entryX=0.5;entryY=0;entryDx=0;entryDy=0;endFill=1;exitX=0.25;exitY=1;exitDx=0;exitDy=0;" edge="1" parent="1" source="cnnT2Qb8NBw0HW5TztHU-2" target="cnnT2Qb8NBw0HW5TztHU-6">
          <mxGeometry width="50" height="50" relative="1" as="geometry">
            <mxPoint x="380" y="410" as="sourcePoint" />
            <mxPoint x="430" y="360" as="targetPoint" />
          </mxGeometry>
        </mxCell>
        <mxCell id="cnnT2Qb8NBw0HW5TztHU-16" value="" style="endArrow=blockThin;html=1;entryX=0.5;entryY=0;entryDx=0;entryDy=0;endFill=1;exitX=0.75;exitY=1;exitDx=0;exitDy=0;" edge="1" parent="1" source="cnnT2Qb8NBw0HW5TztHU-2" target="cnnT2Qb8NBw0HW5TztHU-5">
          <mxGeometry width="50" height="50" relative="1" as="geometry">
            <mxPoint x="460" y="90" as="sourcePoint" />
            <mxPoint x="430" y="360" as="targetPoint" />
          </mxGeometry>
        </mxCell>
        <mxCell id="cnnT2Qb8NBw0HW5TztHU-21" value="Login?" style="rhombus;whiteSpace=wrap;html=1;" vertex="1" parent="1">
          <mxGeometry x="212" y="190" width="80" height="50" as="geometry" />
        </mxCell>
        <mxCell id="cnnT2Qb8NBw0HW5TztHU-26" value="" style="endArrow=block;html=1;strokeColor=#000000;exitX=0;exitY=0.5;exitDx=0;exitDy=0;entryX=0;entryY=0.5;entryDx=0;entryDy=0;endFill=0;" edge="1" parent="1" source="cnnT2Qb8NBw0HW5TztHU-21" target="cnnT2Qb8NBw0HW5TztHU-6">
          <mxGeometry width="50" height="50" relative="1" as="geometry">
            <mxPoint x="327" y="405" as="sourcePoint" />
            <mxPoint x="177" y="220" as="targetPoint" />
            <Array as="points">
              <mxPoint x="170" y="215" />
              <mxPoint x="170" y="140" />
            </Array>
          </mxGeometry>
        </mxCell>
        <mxCell id="cnnT2Qb8NBw0HW5TztHU-28" value="Student Main" style="rounded=1;whiteSpace=wrap;html=1;" vertex="1" parent="1">
          <mxGeometry x="207" y="275" width="90" height="40" as="geometry" />
        </mxCell>
        <mxCell id="cnnT2Qb8NBw0HW5TztHU-29" value="Login?" style="rhombus;whiteSpace=wrap;html=1;" vertex="1" parent="1">
          <mxGeometry x="588" y="190" width="80" height="50" as="geometry" />
        </mxCell>
        <mxCell id="cnnT2Qb8NBw0HW5TztHU-30" value="Admin Main" style="rounded=1;whiteSpace=wrap;html=1;" vertex="1" parent="1">
          <mxGeometry x="583" y="275" width="90" height="40" as="geometry" />
        </mxCell>
        <mxCell id="cnnT2Qb8NBw0HW5TztHU-32" value="Grad_Requirements&lt;br&gt;Achievement" style="rounded=1;whiteSpace=wrap;html=1;" vertex="1" parent="1">
          <mxGeometry x="314" y="367" width="120" height="40" as="geometry" />
        </mxCell>
        <mxCell id="cnnT2Qb8NBw0HW5TztHU-34" value="Major Course&lt;br&gt;Recommendation" style="rounded=1;whiteSpace=wrap;html=1;" vertex="1" parent="1">
          <mxGeometry x="94" y="367" width="100" height="40" as="geometry" />
        </mxCell>
        <mxCell id="cnnT2Qb8NBw0HW5TztHU-35" value="Liberal Arts&lt;br&gt;Recommendation" style="rounded=1;whiteSpace=wrap;html=1;" vertex="1" parent="1">
          <mxGeometry x="204" y="367" width="100" height="40" as="geometry" />
        </mxCell>
        <mxCell id="cnnT2Qb8NBw0HW5TztHU-36" value="" style="endArrow=classic;html=1;strokeColor=#000000;exitX=0;exitY=0.5;exitDx=0;exitDy=0;entryX=0;entryY=0.5;entryDx=0;entryDy=0;" edge="1" parent="1" source="cnnT2Qb8NBw0HW5TztHU-28" target="cnnT2Qb8NBw0HW5TztHU-2">
          <mxGeometry width="50" height="50" relative="1" as="geometry">
            <mxPoint x="340" y="430" as="sourcePoint" />
            <mxPoint x="390" y="380" as="targetPoint" />
            <Array as="points">
              <mxPoint x="70" y="295" />
              <mxPoint x="70" y="80" />
            </Array>
          </mxGeometry>
        </mxCell>
        <mxCell id="cnnT2Qb8NBw0HW5TztHU-39" value="Fastest way to Graduation" style="rounded=1;whiteSpace=wrap;html=1;" vertex="1" parent="1">
          <mxGeometry x="94" y="447" width="100" height="40" as="geometry" />
        </mxCell>
        <mxCell id="cnnT2Qb8NBw0HW5TztHU-40" value="Random Algorithm" style="rounded=1;whiteSpace=wrap;html=1;" vertex="1" parent="1">
          <mxGeometry x="204" y="447" width="100" height="40" as="geometry" />
        </mxCell>
        <mxCell id="cnnT2Qb8NBw0HW5TztHU-41" value="Popular Courses" style="rounded=1;whiteSpace=wrap;html=1;" vertex="1" parent="1">
          <mxGeometry x="314" y="447" width="100" height="40" as="geometry" />
        </mxCell>
        <mxCell id="cnnT2Qb8NBw0HW5TztHU-43" value="" style="endArrow=block;html=1;strokeColor=#000000;entryX=0.5;entryY=0;entryDx=0;entryDy=0;endFill=0;" edge="1" parent="1" target="cnnT2Qb8NBw0HW5TztHU-28">
          <mxGeometry width="50" height="50" relative="1" as="geometry">
            <mxPoint x="252" y="240" as="sourcePoint" />
            <mxPoint x="187" y="262" as="targetPoint" />
          </mxGeometry>
        </mxCell>
        <mxCell id="cnnT2Qb8NBw0HW5TztHU-47" value="" style="endArrow=classic;html=1;strokeColor=#000000;entryX=0.5;entryY=0;entryDx=0;entryDy=0;" edge="1" parent="1" target="cnnT2Qb8NBw0HW5TztHU-34">
          <mxGeometry width="50" height="50" relative="1" as="geometry">
            <mxPoint x="260" y="337" as="sourcePoint" />
            <mxPoint x="390" y="337" as="targetPoint" />
            <Array as="points">
              <mxPoint x="144" y="337" />
            </Array>
          </mxGeometry>
        </mxCell>
        <mxCell id="cnnT2Qb8NBw0HW5TztHU-48" value="" style="endArrow=classic;html=1;strokeColor=#000000;exitX=0.5;exitY=1;exitDx=0;exitDy=0;" edge="1" parent="1" source="cnnT2Qb8NBw0HW5TztHU-28" target="cnnT2Qb8NBw0HW5TztHU-35">
          <mxGeometry width="50" height="50" relative="1" as="geometry">
            <mxPoint x="253" y="365" as="sourcePoint" />
            <mxPoint x="390" y="365" as="targetPoint" />
          </mxGeometry>
        </mxCell>
        <mxCell id="cnnT2Qb8NBw0HW5TztHU-49" value="" style="endArrow=classic;html=1;strokeColor=#000000;entryX=0.5;entryY=0;entryDx=0;entryDy=0;" edge="1" parent="1" target="cnnT2Qb8NBw0HW5TztHU-32">
          <mxGeometry width="50" height="50" relative="1" as="geometry">
            <mxPoint x="250" y="337" as="sourcePoint" />
            <mxPoint x="390" y="337" as="targetPoint" />
            <Array as="points">
              <mxPoint x="374" y="337" />
            </Array>
          </mxGeometry>
        </mxCell>
        <mxCell id="cnnT2Qb8NBw0HW5TztHU-50" value="" style="endArrow=classic;html=1;strokeColor=#000000;exitX=0.5;exitY=1;exitDx=0;exitDy=0;entryX=0.5;entryY=0;entryDx=0;entryDy=0;" edge="1" parent="1" source="cnnT2Qb8NBw0HW5TztHU-35" target="cnnT2Qb8NBw0HW5TztHU-39">
          <mxGeometry width="50" height="50" relative="1" as="geometry">
            <mxPoint x="340" y="387" as="sourcePoint" />
            <mxPoint x="390" y="337" as="targetPoint" />
          </mxGeometry>
        </mxCell>
        <mxCell id="cnnT2Qb8NBw0HW5TztHU-51" value="" style="endArrow=classic;html=1;strokeColor=#000000;entryX=0.5;entryY=0;entryDx=0;entryDy=0;exitX=0.5;exitY=1;exitDx=0;exitDy=0;" edge="1" parent="1" source="cnnT2Qb8NBw0HW5TztHU-35" target="cnnT2Qb8NBw0HW5TztHU-40">
          <mxGeometry width="50" height="50" relative="1" as="geometry">
            <mxPoint x="254" y="417" as="sourcePoint" />
            <mxPoint x="390" y="337" as="targetPoint" />
          </mxGeometry>
        </mxCell>
        <mxCell id="cnnT2Qb8NBw0HW5TztHU-52" value="" style="endArrow=classic;html=1;strokeColor=#000000;exitX=0.5;exitY=1;exitDx=0;exitDy=0;entryX=0.5;entryY=0;entryDx=0;entryDy=0;" edge="1" parent="1" source="cnnT2Qb8NBw0HW5TztHU-35" target="cnnT2Qb8NBw0HW5TztHU-41">
          <mxGeometry width="50" height="50" relative="1" as="geometry">
            <mxPoint x="340" y="387" as="sourcePoint" />
            <mxPoint x="390" y="337" as="targetPoint" />
          </mxGeometry>
        </mxCell>
        <mxCell id="cnnT2Qb8NBw0HW5TztHU-54" value="" style="endArrow=classic;html=1;strokeColor=#000000;exitX=0.5;exitY=1;exitDx=0;exitDy=0;entryX=0.5;entryY=0;entryDx=0;entryDy=0;" edge="1" parent="1" source="cnnT2Qb8NBw0HW5TztHU-5" target="cnnT2Qb8NBw0HW5TztHU-29">
          <mxGeometry width="50" height="50" relative="1" as="geometry">
            <mxPoint x="343" y="430" as="sourcePoint" />
            <mxPoint x="393" y="380" as="targetPoint" />
          </mxGeometry>
        </mxCell>
        <mxCell id="cnnT2Qb8NBw0HW5TztHU-56" value="" style="endArrow=classic;html=1;strokeColor=#000000;exitX=0.5;exitY=1;exitDx=0;exitDy=0;entryX=0.5;entryY=0;entryDx=0;entryDy=0;" edge="1" parent="1" source="cnnT2Qb8NBw0HW5TztHU-6" target="cnnT2Qb8NBw0HW5TztHU-21">
          <mxGeometry width="50" height="50" relative="1" as="geometry">
            <mxPoint x="340" y="430" as="sourcePoint" />
            <mxPoint x="390" y="380" as="targetPoint" />
          </mxGeometry>
        </mxCell>
        <mxCell id="cnnT2Qb8NBw0HW5TztHU-57" value="" style="endArrow=block;html=1;strokeColor=#000000;entryX=0.5;entryY=0;entryDx=0;entryDy=0;endFill=0;" edge="1" parent="1" target="cnnT2Qb8NBw0HW5TztHU-30">
          <mxGeometry width="50" height="50" relative="1" as="geometry">
            <mxPoint x="628" y="240" as="sourcePoint" />
            <mxPoint x="265" y="287" as="targetPoint" />
          </mxGeometry>
        </mxCell>
        <mxCell id="cnnT2Qb8NBw0HW5TztHU-58" value="Graduation&lt;br&gt;Management" style="rounded=1;whiteSpace=wrap;html=1;" vertex="1" parent="1">
          <mxGeometry x="690" y="367" width="100" height="40" as="geometry" />
        </mxCell>
        <mxCell id="cnnT2Qb8NBw0HW5TztHU-59" value="Courses&lt;br&gt;Management" style="rounded=1;whiteSpace=wrap;html=1;" vertex="1" parent="1">
          <mxGeometry x="470" y="367" width="100" height="40" as="geometry" />
        </mxCell>
        <mxCell id="cnnT2Qb8NBw0HW5TztHU-60" value="Students&lt;br&gt;Management" style="rounded=1;whiteSpace=wrap;html=1;" vertex="1" parent="1">
          <mxGeometry x="580" y="367" width="100" height="40" as="geometry" />
        </mxCell>
        <mxCell id="cnnT2Qb8NBw0HW5TztHU-61" value="" style="endArrow=classic;html=1;strokeColor=#000000;entryX=0.5;entryY=0;entryDx=0;entryDy=0;" edge="1" parent="1" target="cnnT2Qb8NBw0HW5TztHU-59">
          <mxGeometry width="50" height="50" relative="1" as="geometry">
            <mxPoint x="636" y="337" as="sourcePoint" />
            <mxPoint x="766" y="337" as="targetPoint" />
            <Array as="points">
              <mxPoint x="520" y="337" />
            </Array>
          </mxGeometry>
        </mxCell>
        <mxCell id="cnnT2Qb8NBw0HW5TztHU-62" value="" style="endArrow=classic;html=1;strokeColor=#000000;exitX=0.5;exitY=1;exitDx=0;exitDy=0;" edge="1" parent="1" target="cnnT2Qb8NBw0HW5TztHU-60">
          <mxGeometry width="50" height="50" relative="1" as="geometry">
            <mxPoint x="628" y="315" as="sourcePoint" />
            <mxPoint x="766" y="365" as="targetPoint" />
          </mxGeometry>
        </mxCell>
        <mxCell id="cnnT2Qb8NBw0HW5TztHU-63" value="" style="endArrow=classic;html=1;strokeColor=#000000;entryX=0.5;entryY=0;entryDx=0;entryDy=0;" edge="1" parent="1" target="cnnT2Qb8NBw0HW5TztHU-58">
          <mxGeometry width="50" height="50" relative="1" as="geometry">
            <mxPoint x="626" y="337" as="sourcePoint" />
            <mxPoint x="766" y="337" as="targetPoint" />
            <Array as="points">
              <mxPoint x="740" y="337" />
            </Array>
          </mxGeometry>
        </mxCell>
        <mxCell id="cnnT2Qb8NBw0HW5TztHU-70" value="" style="endArrow=block;html=1;strokeColor=#000000;exitX=1;exitY=0.5;exitDx=0;exitDy=0;entryX=1;entryY=0.5;entryDx=0;entryDy=0;endFill=0;" edge="1" parent="1" source="cnnT2Qb8NBw0HW5TztHU-29" target="cnnT2Qb8NBw0HW5TztHU-5">
          <mxGeometry width="50" height="50" relative="1" as="geometry">
            <mxPoint x="742" y="230" as="sourcePoint" />
            <mxPoint x="737" y="140" as="targetPoint" />
            <Array as="points">
              <mxPoint x="710" y="215" />
              <mxPoint x="710" y="140" />
            </Array>
          </mxGeometry>
        </mxCell>
        <mxCell id="cnnT2Qb8NBw0HW5TztHU-71" value="Create" style="rounded=1;whiteSpace=wrap;html=1;" vertex="1" parent="1">
          <mxGeometry x="495" y="427" width="50" height="30" as="geometry" />
        </mxCell>
        <mxCell id="cnnT2Qb8NBw0HW5TztHU-72" value="Read" style="rounded=1;whiteSpace=wrap;html=1;" vertex="1" parent="1">
          <mxGeometry x="495" y="467" width="50" height="30" as="geometry" />
        </mxCell>
        <mxCell id="cnnT2Qb8NBw0HW5TztHU-73" value="Update" style="rounded=1;whiteSpace=wrap;html=1;" vertex="1" parent="1">
          <mxGeometry x="495" y="507" width="50" height="30" as="geometry" />
        </mxCell>
        <mxCell id="cnnT2Qb8NBw0HW5TztHU-74" value="Delete" style="rounded=1;whiteSpace=wrap;html=1;" vertex="1" parent="1">
          <mxGeometry x="495" y="547" width="50" height="30" as="geometry" />
        </mxCell>
        <mxCell id="cnnT2Qb8NBw0HW5TztHU-75" value="Create" style="rounded=1;whiteSpace=wrap;html=1;" vertex="1" parent="1">
          <mxGeometry x="605" y="427" width="50" height="30" as="geometry" />
        </mxCell>
        <mxCell id="cnnT2Qb8NBw0HW5TztHU-76" value="Read" style="rounded=1;whiteSpace=wrap;html=1;" vertex="1" parent="1">
          <mxGeometry x="605" y="467" width="50" height="30" as="geometry" />
        </mxCell>
        <mxCell id="cnnT2Qb8NBw0HW5TztHU-77" value="Update" style="rounded=1;whiteSpace=wrap;html=1;" vertex="1" parent="1">
          <mxGeometry x="605" y="507" width="50" height="30" as="geometry" />
        </mxCell>
        <mxCell id="cnnT2Qb8NBw0HW5TztHU-78" value="Delete" style="rounded=1;whiteSpace=wrap;html=1;" vertex="1" parent="1">
          <mxGeometry x="605" y="547" width="50" height="30" as="geometry" />
        </mxCell>
        <mxCell id="cnnT2Qb8NBw0HW5TztHU-84" value="Create" style="rounded=1;whiteSpace=wrap;html=1;" vertex="1" parent="1">
          <mxGeometry x="715" y="427" width="50" height="30" as="geometry" />
        </mxCell>
        <mxCell id="cnnT2Qb8NBw0HW5TztHU-85" value="Read" style="rounded=1;whiteSpace=wrap;html=1;" vertex="1" parent="1">
          <mxGeometry x="715" y="467" width="50" height="30" as="geometry" />
        </mxCell>
        <mxCell id="cnnT2Qb8NBw0HW5TztHU-86" value="Update" style="rounded=1;whiteSpace=wrap;html=1;" vertex="1" parent="1">
          <mxGeometry x="715" y="507" width="50" height="30" as="geometry" />
        </mxCell>
        <mxCell id="cnnT2Qb8NBw0HW5TztHU-87" value="Delete" style="rounded=1;whiteSpace=wrap;html=1;" vertex="1" parent="1">
          <mxGeometry x="715" y="547" width="50" height="30" as="geometry" />
        </mxCell>
        <mxCell id="cnnT2Qb8NBw0HW5TztHU-88" value="" style="endArrow=none;html=1;strokeColor=#000000;entryX=0.1;entryY=1;entryDx=0;entryDy=0;entryPerimeter=0;" edge="1" parent="1" target="cnnT2Qb8NBw0HW5TztHU-59">
          <mxGeometry width="50" height="50" relative="1" as="geometry">
            <mxPoint x="480" y="567" as="sourcePoint" />
            <mxPoint x="484" y="437" as="targetPoint" />
          </mxGeometry>
        </mxCell>
        <mxCell id="cnnT2Qb8NBw0HW5TztHU-89" value="" style="endArrow=classic;html=1;strokeColor=#000000;entryX=0;entryY=0.5;entryDx=0;entryDy=0;" edge="1" parent="1" target="cnnT2Qb8NBw0HW5TztHU-71">
          <mxGeometry width="50" height="50" relative="1" as="geometry">
            <mxPoint x="480" y="442" as="sourcePoint" />
            <mxPoint x="390" y="257" as="targetPoint" />
          </mxGeometry>
        </mxCell>
        <mxCell id="cnnT2Qb8NBw0HW5TztHU-90" value="" style="endArrow=classic;html=1;strokeColor=#000000;entryX=0;entryY=0.5;entryDx=0;entryDy=0;" edge="1" parent="1">
          <mxGeometry width="50" height="50" relative="1" as="geometry">
            <mxPoint x="481" y="480" as="sourcePoint" />
            <mxPoint x="496" y="480" as="targetPoint" />
          </mxGeometry>
        </mxCell>
        <mxCell id="cnnT2Qb8NBw0HW5TztHU-91" value="" style="endArrow=classic;html=1;strokeColor=#000000;entryX=0;entryY=0.5;entryDx=0;entryDy=0;" edge="1" parent="1">
          <mxGeometry width="50" height="50" relative="1" as="geometry">
            <mxPoint x="481" y="522.9999999999998" as="sourcePoint" />
            <mxPoint x="496" y="522.9999999999998" as="targetPoint" />
          </mxGeometry>
        </mxCell>
        <mxCell id="cnnT2Qb8NBw0HW5TztHU-92" value="" style="endArrow=classic;html=1;strokeColor=#000000;entryX=0;entryY=0.5;entryDx=0;entryDy=0;" edge="1" parent="1">
          <mxGeometry width="50" height="50" relative="1" as="geometry">
            <mxPoint x="480" y="566" as="sourcePoint" />
            <mxPoint x="497" y="565.9999999999998" as="targetPoint" />
          </mxGeometry>
        </mxCell>
        <mxCell id="cnnT2Qb8NBw0HW5TztHU-103" value="" style="endArrow=none;html=1;strokeColor=#000000;entryX=0.1;entryY=1;entryDx=0;entryDy=0;entryPerimeter=0;" edge="1" parent="1">
          <mxGeometry width="50" height="50" relative="1" as="geometry">
            <mxPoint x="588" y="567" as="sourcePoint" />
            <mxPoint x="588" y="407" as="targetPoint" />
          </mxGeometry>
        </mxCell>
        <mxCell id="cnnT2Qb8NBw0HW5TztHU-104" value="" style="endArrow=classic;html=1;strokeColor=#000000;entryX=0;entryY=0.5;entryDx=0;entryDy=0;" edge="1" parent="1">
          <mxGeometry width="50" height="50" relative="1" as="geometry">
            <mxPoint x="588" y="442" as="sourcePoint" />
            <mxPoint x="603" y="442" as="targetPoint" />
          </mxGeometry>
        </mxCell>
        <mxCell id="cnnT2Qb8NBw0HW5TztHU-105" value="" style="endArrow=classic;html=1;strokeColor=#000000;entryX=0;entryY=0.5;entryDx=0;entryDy=0;" edge="1" parent="1">
          <mxGeometry width="50" height="50" relative="1" as="geometry">
            <mxPoint x="589" y="479.9999999999998" as="sourcePoint" />
            <mxPoint x="604" y="479.9999999999998" as="targetPoint" />
          </mxGeometry>
        </mxCell>
        <mxCell id="cnnT2Qb8NBw0HW5TztHU-106" value="" style="endArrow=classic;html=1;strokeColor=#000000;entryX=0;entryY=0.5;entryDx=0;entryDy=0;" edge="1" parent="1">
          <mxGeometry width="50" height="50" relative="1" as="geometry">
            <mxPoint x="589" y="522.9999999999998" as="sourcePoint" />
            <mxPoint x="604" y="522.9999999999998" as="targetPoint" />
          </mxGeometry>
        </mxCell>
        <mxCell id="cnnT2Qb8NBw0HW5TztHU-107" value="" style="endArrow=classic;html=1;strokeColor=#000000;entryX=0;entryY=0.5;entryDx=0;entryDy=0;" edge="1" parent="1">
          <mxGeometry width="50" height="50" relative="1" as="geometry">
            <mxPoint x="588" y="566" as="sourcePoint" />
            <mxPoint x="605" y="565.9999999999998" as="targetPoint" />
          </mxGeometry>
        </mxCell>
        <mxCell id="cnnT2Qb8NBw0HW5TztHU-108" value="" style="endArrow=none;html=1;strokeColor=#000000;entryX=0.1;entryY=1;entryDx=0;entryDy=0;entryPerimeter=0;" edge="1" parent="1">
          <mxGeometry width="50" height="50" relative="1" as="geometry">
            <mxPoint x="698" y="567" as="sourcePoint" />
            <mxPoint x="698" y="407" as="targetPoint" />
          </mxGeometry>
        </mxCell>
        <mxCell id="cnnT2Qb8NBw0HW5TztHU-109" value="" style="endArrow=classic;html=1;strokeColor=#000000;entryX=0;entryY=0.5;entryDx=0;entryDy=0;" edge="1" parent="1">
          <mxGeometry width="50" height="50" relative="1" as="geometry">
            <mxPoint x="698" y="442" as="sourcePoint" />
            <mxPoint x="713" y="442" as="targetPoint" />
          </mxGeometry>
        </mxCell>
        <mxCell id="cnnT2Qb8NBw0HW5TztHU-110" value="" style="endArrow=classic;html=1;strokeColor=#000000;entryX=0;entryY=0.5;entryDx=0;entryDy=0;" edge="1" parent="1">
          <mxGeometry width="50" height="50" relative="1" as="geometry">
            <mxPoint x="699" y="479.9999999999998" as="sourcePoint" />
            <mxPoint x="714" y="479.9999999999998" as="targetPoint" />
          </mxGeometry>
        </mxCell>
        <mxCell id="cnnT2Qb8NBw0HW5TztHU-111" value="" style="endArrow=classic;html=1;strokeColor=#000000;entryX=0;entryY=0.5;entryDx=0;entryDy=0;" edge="1" parent="1">
          <mxGeometry width="50" height="50" relative="1" as="geometry">
            <mxPoint x="699" y="522.9999999999998" as="sourcePoint" />
            <mxPoint x="714" y="522.9999999999998" as="targetPoint" />
          </mxGeometry>
        </mxCell>
        <mxCell id="cnnT2Qb8NBw0HW5TztHU-112" value="" style="endArrow=classic;html=1;strokeColor=#000000;entryX=0;entryY=0.5;entryDx=0;entryDy=0;" edge="1" parent="1">
          <mxGeometry width="50" height="50" relative="1" as="geometry">
            <mxPoint x="698" y="566" as="sourcePoint" />
            <mxPoint x="715" y="565.9999999999998" as="targetPoint" />
          </mxGeometry>
        </mxCell>
        <mxCell id="cnnT2Qb8NBw0HW5TztHU-113" value="" style="endArrow=classic;html=1;strokeColor=#000000;exitX=1;exitY=0.5;exitDx=0;exitDy=0;entryX=1;entryY=0.5;entryDx=0;entryDy=0;" edge="1" parent="1" source="cnnT2Qb8NBw0HW5TztHU-30" target="cnnT2Qb8NBw0HW5TztHU-2">
          <mxGeometry width="50" height="50" relative="1" as="geometry">
            <mxPoint x="647" y="298" as="sourcePoint" />
            <mxPoint x="840" y="70" as="targetPoint" />
            <Array as="points">
              <mxPoint x="780" y="295" />
              <mxPoint x="780" y="80" />
            </Array>
          </mxGeometry>
        </mxCell>
        <mxCell id="cnnT2Qb8NBw0HW5TztHU-116" value="YES" style="text;html=1;strokeColor=none;fillColor=none;align=center;verticalAlign=middle;whiteSpace=wrap;rounded=0;" vertex="1" parent="1">
          <mxGeometry x="212" y="240" width="40" height="20" as="geometry" />
        </mxCell>
        <mxCell id="cnnT2Qb8NBw0HW5TztHU-117" value="NO" style="text;html=1;strokeColor=none;fillColor=none;align=center;verticalAlign=middle;whiteSpace=wrap;rounded=0;" vertex="1" parent="1">
          <mxGeometry x="130" y="170" width="40" height="20" as="geometry" />
        </mxCell>
        <mxCell id="cnnT2Qb8NBw0HW5TztHU-118" value="YES" style="text;html=1;strokeColor=none;fillColor=none;align=center;verticalAlign=middle;whiteSpace=wrap;rounded=0;" vertex="1" parent="1">
          <mxGeometry x="628" y="240" width="40" height="20" as="geometry" />
        </mxCell>
        <mxCell id="cnnT2Qb8NBw0HW5TztHU-119" value="NO" style="text;html=1;strokeColor=none;fillColor=none;align=center;verticalAlign=middle;whiteSpace=wrap;rounded=0;" vertex="1" parent="1">
          <mxGeometry x="710" y="170" width="40" height="20" as="geometry" />
        </mxCell>
        <mxCell id="cnnT2Qb8NBw0HW5TztHU-121" value="Course Recommendation" style="rounded=1;whiteSpace=wrap;html=1;" vertex="1" parent="1">
          <mxGeometry x="204" y="520" width="100" height="40" as="geometry" />
        </mxCell>
        <mxCell id="cnnT2Qb8NBw0HW5TztHU-122" value="" style="endArrow=classic;html=1;strokeColor=#000000;exitX=0.75;exitY=0;exitDx=0;exitDy=0;entryX=1;entryY=0.5;entryDx=0;entryDy=0;" edge="1" parent="1" source="cnnT2Qb8NBw0HW5TztHU-32" target="cnnT2Qb8NBw0HW5TztHU-28">
          <mxGeometry width="50" height="50" relative="1" as="geometry">
            <mxPoint x="610" y="450" as="sourcePoint" />
            <mxPoint x="660" y="400" as="targetPoint" />
            <Array as="points">
              <mxPoint x="404" y="295" />
            </Array>
          </mxGeometry>
        </mxCell>
        <mxCell id="cnnT2Qb8NBw0HW5TztHU-123" value="" style="endArrow=classic;html=1;strokeColor=#000000;exitX=0.5;exitY=1;exitDx=0;exitDy=0;" edge="1" parent="1" source="cnnT2Qb8NBw0HW5TztHU-40" target="cnnT2Qb8NBw0HW5TztHU-121">
          <mxGeometry width="50" height="50" relative="1" as="geometry">
            <mxPoint x="610" y="450" as="sourcePoint" />
            <mxPoint x="660" y="400" as="targetPoint" />
          </mxGeometry>
        </mxCell>
        <mxCell id="cnnT2Qb8NBw0HW5TztHU-124" value="" style="endArrow=none;html=1;strokeColor=#000000;exitX=0.5;exitY=1;exitDx=0;exitDy=0;" edge="1" parent="1" source="cnnT2Qb8NBw0HW5TztHU-39">
          <mxGeometry width="50" height="50" relative="1" as="geometry">
            <mxPoint x="610" y="450" as="sourcePoint" />
            <mxPoint x="260" y="500" as="targetPoint" />
            <Array as="points">
              <mxPoint x="144" y="500" />
            </Array>
          </mxGeometry>
        </mxCell>
        <mxCell id="cnnT2Qb8NBw0HW5TztHU-125" value="" style="endArrow=none;html=1;strokeColor=#000000;exitX=0.5;exitY=1;exitDx=0;exitDy=0;" edge="1" parent="1" source="cnnT2Qb8NBw0HW5TztHU-41">
          <mxGeometry width="50" height="50" relative="1" as="geometry">
            <mxPoint x="610" y="450" as="sourcePoint" />
            <mxPoint x="260" y="500" as="targetPoint" />
            <Array as="points">
              <mxPoint x="364" y="500" />
            </Array>
          </mxGeometry>
        </mxCell>
        <mxCell id="cnnT2Qb8NBw0HW5TztHU-126" value="" style="endArrow=classic;html=1;strokeColor=#000000;exitX=0.25;exitY=0;exitDx=0;exitDy=0;entryX=0;entryY=0.5;entryDx=0;entryDy=0;" edge="1" parent="1" source="cnnT2Qb8NBw0HW5TztHU-34" target="cnnT2Qb8NBw0HW5TztHU-28">
          <mxGeometry width="50" height="50" relative="1" as="geometry">
            <mxPoint x="610" y="450" as="sourcePoint" />
            <mxPoint x="660" y="400" as="targetPoint" />
            <Array as="points">
              <mxPoint x="119" y="295" />
            </Array>
          </mxGeometry>
        </mxCell>
        <mxCell id="cnnT2Qb8NBw0HW5TztHU-129" value="" style="endArrow=classic;html=1;strokeColor=#000000;exitX=0;exitY=0.5;exitDx=0;exitDy=0;entryX=0;entryY=0.5;entryDx=0;entryDy=0;" edge="1" parent="1" source="cnnT2Qb8NBw0HW5TztHU-121" target="cnnT2Qb8NBw0HW5TztHU-28">
          <mxGeometry width="50" height="50" relative="1" as="geometry">
            <mxPoint x="610" y="450" as="sourcePoint" />
            <mxPoint x="660" y="400" as="targetPoint" />
            <Array as="points">
              <mxPoint x="70" y="540" />
              <mxPoint x="70" y="295" />
            </Array>
          </mxGeometry>
        </mxCell>
      </root>
    </mxGraphModel>
  </diagram>
</mxfile>
